<?xml version="1.0"?><svg width="1024" height="768" xmlns="http://www.w3.org/2000/svg" xmlns:xlink="http://www.w3.org/1999/xlink">
 <title>Helicopter</title>
 <defs>
  <linearGradient id="linearGradient3686">
   <stop offset="0" id="stop3688" stop-color="#ffffff"/>
   <stop offset="1" id="stop3690" stop-color="#000000"/>
  </linearGradient>
  <linearGradient id="linearGradient3371">
   <stop offset="0" id="stop3373" stop-color="#ffffff"/>
   <stop offset="1" id="stop3375" stop-color="#ff0000"/>
  </linearGradient>
  <linearGradient id="linearGradient3363">
   <stop id="stop3365" offset="0" stop-color="#777672"/>
   <stop offset="0.606827" id="stop3367" stop-color="#ffffff"/>
   <stop id="stop3369" offset="1" stop-color="#5a4c4c"/>
  </linearGradient>
  <radialGradient xlink:href="#linearGradient3371" id="radialGradient3385" cx="352.41177" cy="611.0166" fx="352.41177" fy="611.0166" r="67.88398" gradientTransform="matrix(-1.5660669,-4.9314138e-7,1.9901129e-7,-0.6319993,1198.2224,925.49039)" gradientUnits="userSpaceOnUse"/>
  <linearGradient xlink:href="#linearGradient3363" id="linearGradient3497" x1="-0.027183" y1="0.5" x2="5.18532" y2="0.744235"/>
  <linearGradient xlink:href="#linearGradient3363" id="linearGradient3505" x1="-0.027183" y1="0.5" x2="-4.776883" y2="0.274553"/>
  <radialGradient xlink:href="#linearGradient3363" id="radialGradient3513" cx="342.52475" cy="358.01721" fx="342.52475" fy="358.01721" r="22.404263" gradientTransform="matrix(1,0,0,0.3336482,0,238.56541)" gradientUnits="userSpaceOnUse"/>
  <radialGradient xlink:href="#linearGradient3371" id="radialGradient3521" cx="343.93314" cy="362.95984" fx="343.93314" fy="362.95984" r="66.695152" gradientTransform="matrix(1,0,0,0.3274672,0,244.1024)" gradientUnits="userSpaceOnUse"/>
  <linearGradient xlink:href="#linearGradient3363" id="linearGradient3529" x1="-0.020748" y1="1.238613" x2="1.083524" y2="0.512395"/>
  <linearGradient xlink:href="#linearGradient3371" id="linearGradient3545" x1="-0.023243" y1="0.5" x2="1.023244" y2="0.5"/>
  <linearGradient xlink:href="#linearGradient3371" id="linearGradient3553" x1="-0.019018" y1="0.5" x2="1.019017" y2="0.5"/>
  <radialGradient xlink:href="#linearGradient3363" id="radialGradient3563" cx="223.46013" cy="355.29794" fx="223.46013" fy="355.29794" r="49.041615" gradientTransform="matrix(-8.8303108e-2,1.0806748,-1.8845785,-0.1539902,937.76219,179.41071)" gradientUnits="userSpaceOnUse"/>
  <linearGradient xlink:href="#linearGradient3363" id="linearGradient3575" x1="0.278302" y1="1.414599" x2="0.782218" y2="0.5"/>
  <linearGradient xlink:href="#linearGradient3686" id="linearGradient3692" x1="0.5" y1="0.760932" x2="0.533116" y2="-0.004982"/>
  <linearGradient xlink:href="#linearGradient3686" id="linearGradient3700" x1="0.528141" y1="-0.004982" x2="0.461058" y2="1.293892"/>
  <filter id="filter4657" x="-0.793956" width="2.587912" y="-1.282544" height="3.565089">
   <feGaussianBlur stdDeviation="2.767438" id="feGaussianBlur4659"/>
  </filter>
  <filter id="filter4661" x="-0.793956" width="2.587912" y="-1.282544" height="3.565089">
   <feGaussianBlur stdDeviation="2.767438" id="feGaussianBlur4663"/>
  </filter>
  <symbol id="svg_35">
   <metadata id="svg_34">image/svg+xml</metadata>
   <g id="svg_31">
    <g id="svg_32">
     <path d="m424.691986,299.098419c0,1.872589 7.473022,3.746368 7.473022,6.555573l0,3.746429l-2.802032,0.9375c2.802032,6.554382 3.738037,10.300781 11.210999,10.300781c3.738037,0 6.540009,5.620209 8.408997,8.429413c4.671021,0 4.671021,-3.745514 10.278015,-3.745514c3.737976,6.555603 5.604004,8.429413 10.278015,14.048401c3.734985,6.555603 3.734985,13.112091 7.472992,19.667725c4.67099,0 4.67099,-2.808929 9.34201,-2.808929c2.802002,2.808929 3.737976,6.555298 5.606995,10.301697c3.735016,0 8.406006,1.874115 13.079987,1.874115c5.604004,8.427887 27.092987,18.73111 28.962006,29.970581c0,0.93631 18.684021,11.238312 19.619995,11.238312c6.539978,10.302002 0.932983,7.491608 12.143982,13.112091c0,2.81012 21.489014,19.667419 21.489014,19.667419l0,13.112091c0,8.429413 5.604004,13.112396 7.473022,20.605194c0.935974,2.81012 6.539978,7.493103 9.34198,7.493103c0.936035,1.872589 8.411987,6.555298 9.344971,7.492798c-59.792969,10.300812 -200.86795,26.224274 -256.925934,23.414093c-0.933014,-2.810089 -2.802032,-3.746399 -4.671021,-3.746399c-0.933014,3.746399 -0.933014,6.55658 -1.869019,10.303101c-4.670959,0 0.936005,-9.366791 0.936005,-11.23938c-4.67099,-6.556824 -5.606964,-3.746704 -5.606964,-14.985901c-7.473022,0 -14.013031,-0.9375 -21.489014,-1.872925c-1.868988,-2.810089 -9.34201,-10.301697 -1.868988,-10.301697c1.868988,0.93631 4.673981,5.619019 4.673981,6.555298c9.34201,0 -0.932983,-7.492798 -1.868988,-8.429382l0,-12.175507c-0.936005,-1.874115 -2.804993,-1.874115 -3.738007,-0.936584c0,2.809174 0,6.555573 0,9.365692c-2.802002,2.810089 -16.817993,5.620483 -9.34198,-7.492798c-2.802032,-7.491913 -7.476013,2.810089 -8.409027,4.682678c-3.736176,-9.365692 -5.605499,-8.429382 0,-11.239471c0,-3.745209 3.738007,-12.174622 3.738007,-13.110901c-2.804993,0 -7.474182,0 -7.474182,4.682678c-1.869324,6.556793 -2.803223,1.87381 -4.672211,-0.936279c-5.605225,0 8.408386,-12.175812 -3.737091,-5.620209c0,0.9375 -1.868134,3.746399 -3.737122,3.746399c0.935089,0 -12.145508,-9.365692 -11.210388,-4.682709c-1.869019,2.81012 -14.948395,1.87381 -14.948395,-3.746399c5.605194,-1.872894 14.013275,-0.936584 14.013275,-8.429382c-1.867798,0 -11.210083,3.746399 -14.013275,3.746399c0,-5.617828 -3.737122,-5.617828 -8.409317,-6.555328c0,-6.555573 -2.802002,-3.746674 -12.145203,-3.746674c-0.934204,6.555603 -20.553604,0.9375 -14.947189,-5.619019c0,0 12.145203,3.746399 12.145203,0c-12.145203,-3.746399 -5.606415,-3.746399 -17.751617,-3.746399c-3.737091,-10.303192 4.671005,-3.746704 8.408112,-7.493103c-4.671005,-0.936279 -8.408112,0 -8.408112,-4.682678c1.869019,-0.93631 5.606415,-0.93631 8.408112,-0.93631c0,-5.619293 -1.868988,-9.365692 7.474197,-8.429413c2.803207,-0.936279 3.737091,0 3.737091,-3.746399c-6.539993,0 -7.474197,1.87381 -11.211288,-1.872894c-7.474197,0 0,3.746704 -9.34201,7.493103c0,-4.682709 -2.803192,-4.682709 -3.737091,-8.429413c-0.935089,-3.746368 8.408096,-13.113281 10.277405,-14.049591c9.34198,0 6.538788,-11.238281 17.750092,-4.681488c0,-7.493103 -12.145203,-9.366913 -3.737106,-14.049591c4.67131,-7.493103 6.540314,-7.493103 2.803207,-10.303223c-4.67099,8.430603 -14.94841,14.985901 -22.422607,19.6698c-4.67099,-8.430267 -3.737091,-21.542389 -12.145187,-2.810089c-1.869308,0 5.604904,-19.668579 5.604904,-21.541199c-3.737122,-5.619293 -1.867813,-1.872894 -9.34201,-1.872894c-2.803192,-3.746399 -0.934204,-5.620209 -0.934204,-12.176697c-2.802887,-8.429413 -14.948395,-5.619324 -7.474197,-17.793915c12.145508,12.174591 5.605209,0 18.684616,6.555603c1.868988,-2.810394 1.868988,-5.619293 3.737976,-9.365692c0,0 -25.225479,12.174591 -19.62059,-0.93631c0,-6.556793 0.935104,-5.620514 3.737091,-15.922211c-1.867783,-0.936584 -2.801987,-4.682983 -6.539093,-3.746704c6.539093,7.493103 -2.802887,13.112122 -8.408096,15.922211c-2.804398,3.746704 -0.935104,6.556824 -3.737091,10.303223c-2.803207,0 -10.27742,-9.366608 -10.27742,-12.177032c-5.606079,-5.618988 -7.474197,-9.365387 -7.474197,-15.92218c3.737106,-4.681488 9.342316,-1.871399 9.342316,-8.428192c-5.605209,0 -7.474197,0.936584 -12.145508,0.936584c-2.802887,-3.746704 0,-6.556793 -5.604904,-6.556793c0,-7.493103 2.802017,-12.175812 10.276215,-14.048401c0,-9.365692 -1.868118,-6.555603 3.738297,-9.365692c7.472992,0 9.341995,-4.683609 2.801697,-4.683609c-1.868988,-0.935989 2.803207,-7.490982 3.737091,-8.426987c-5.606079,-1.875 -5.606079,3.743988 -5.606079,-8.430023c-0.932709,-3.747009 0,-10.302002 2.803192,-13.112991c0,-5.619003 0,-12.173981 -0.934204,-17.79599c-8.408112,0 -3.737106,0 -10.2771,-4.682983c-2.801987,-6.555038 -10.276199,-7.491028 -14.947495,-12.174026c-10.277115,-10.301987 -15.882309,-3.746994 -18.686707,-27.162018c0,-4.682999 -9.342003,-30.905968 -14.947197,-39.33596c0,-12.174019 -8.408104,-31.842003 -15.882301,-40.272034c-6.540298,-6.554993 -10.277397,-5.618988 -10.277397,-15.920982c-10.277405,-12.176987 -10.277405,-3.746994 -10.277405,-17.796017c1.869003,-2.807999 -14.013298,-15.920986 -13.079399,-15.920986c-14.948395,0 -15.883495,12.176991 -25.2258,20.604015c-6.539997,0 -13.080359,5.618996 -21.488546,4.682999c0,-3.746998 3.73827,-12.174026 0.93516,-15.921021c-6.540241,-6.554995 -7.474231,-14.984987 -13.08048,-21.542982c-3.7371,-3.743994 -3.7371,-7.490991 -6.539055,-10.301989c135.468805,26.225976 275.609598,41.210999 409.211588,30.908971l14.945984,267.86039l0.000031,0.000031zm-334.468163,-3.746399c0,-11.238281 -5.604889,-11.238281 -0.933899,-23.415283c3.737099,0 6.539108,2.810089 10.277405,2.810089c0,7.493103 2.801697,2.810089 8.406898,2.810089c4.672195,3.746704 0.935097,4.683014 7.475395,4.683014c3.737099,0 4.671005,-4.683014 7.474205,-4.683014c0.933899,1.874115 0.933899,4.683014 0.933899,6.556824c-0.933899,0.935089 -5.606102,7.491913 -5.606102,8.428192c-4.670998,11.239197 -2.802002,8.429108 -2.802002,16.85849c-2.8032,6.555603 -2.8032,4.683899 -8.408089,4.683899c-0.935104,0.93512 -1.869308,1.871704 -2.803207,2.808014c-3.737106,0 -10.277397,1.87381 -10.277397,-5.618103c0.933899,-3.746399 3.737099,0 3.737099,-5.620178c-2.8032,-2.809204 -13.079094,-1.872925 -7.474205,-10.302032l0,0zm343.811668,29.970581c2.801697,0 4.67099,-0.9375 7.474182,-1.87381c4.671021,0 7.473022,-2.810089 11.210114,-2.810089c0,4.683899 0,3.746399 0.935089,7.492798c0,2.810089 0.933929,1.87381 -1.868988,2.810089c-1.868073,-0.936279 -2.803192,-2.810089 -4.671265,-2.810089c-1.867828,2.810089 -0.933929,4.683014 0,6.556793c0,2.81012 1.868073,11.239197 3.737061,12.175812c0,2.808899 6.540314,6.555298 6.540314,7.491608c0,1.87381 0.933899,8.429382 4.67099,9.366882c2.802002,0.93631 2.802002,0 1.868103,4.682709c-3.737122,0 -2.802002,0 -5.605194,-2.810089c-1.868988,0 -3.737091,0 -3.737091,-1.87262c-1.869019,-1.87381 -1.869019,-4.683868 -1.869019,-7.493073c-8.408081,-11.238312 -7.472992,-7.492828 -15.882599,-23.415009c3.737396,-1.872925 1.869293,-4.683014 -2.801697,-4.683014c0,0 -0.935394,-2.808899 0,-2.808899l0,0zm15.882324,6.555298c-0.93512,1.874115 0,2.810394 0.933868,3.746704c2.803192,-2.810089 4.671326,-3.746704 -0.933868,-3.746704l0,0zm5.605194,12.175812c-0.934204,0 -8.408386,0 -1.868134,2.810394c2.802032,0 1.868134,0 1.868134,-2.810394l0,0zm33.633911,-48.701691c3.737061,0 8.408081,-6.556824 2.803192,-6.556824c-2.803192,-1.871399 -6.540314,0 -8.408417,1.87381c0,8.429413 -0.935089,1.872589 4.671295,1.872589c0,0.93631 0.933929,2.810425 0.933929,2.810425m9.342285,13.112091c0,-1.872894 0.935089,-6.556824 -0.934204,-7.493103c-1.867828,-3.746399 0,-4.682709 3.737122,0c0,2.810089 3.737061,3.746399 4.672485,5.620209c0.932678,8.429382 5.604889,9.365692 6.538818,12.174591c0,3.746704 0.934204,4.682983 -1.869019,8.429413c-2.802032,0 -2.802032,-1.87262 -2.802032,-3.746429c-0.935089,-3.746399 -7.474182,-13.11087 -9.34317,-14.98468l0,0zm14.014221,21.541199c0,1.872589 0.934204,1.872589 1.869263,3.746704c0,3.746399 1.867798,4.682678 -1.869263,4.682678c-1.869019,-2.810089 -0.933929,-4.682678 0,-8.429382l0,0zm10.277344,-10.302917c-0.933838,1.87381 -3.738281,1.87381 1.868103,3.746399c3.737122,-5.618103 -1.868103,-3.746399 -1.868103,-3.746399l0,0zm-1.868958,12.175507l0,-5.618988c-4.671326,-0.93631 -4.671326,5.618988 0,5.618988l0,0zm-4.671326,14.986206c0,4.681488 2.802002,4.681488 2.802002,8.427917l0,0c0,3.746704 0.93512,4.684204 3.738281,4.684204c0.933899,-2.810425 0,-4.684204 0,-7.493134c-2.803162,-2.810089 -2.803162,-5.618988 -6.540283,-5.618988l0,0zm18.685791,1.872589c0.933899,-3.745483 0.933899,-7.491882 0.933899,-11.238281c-1.868042,-2.81012 -6.540283,-12.175812 -11.211304,-12.175812c0,1.87262 0.93396,3.746399 0.93396,4.682709c-1.868164,1.872589 -2.802063,2.809204 -5.605225,4.682983c0,1.87262 0.934204,3.746399 2.803162,5.619019c0,2.810089 -0.933838,2.810089 -0.933838,6.556793c2.801941,0 1.867737,4.681488 5.605164,4.681488c2.802917,-7.491882 0.933899,-9.364471 5.604919,-7.491882c0,2.810394 0,2.810394 -2.802002,3.745483c0,2.81012 -0.93512,2.81012 1.868042,4.683899c0,0 4.671021,-1.873779 2.803223,-3.746399l0,0zm3.737122,2.808899c0,3.746429 -0.934204,6.556824 2.802917,6.556824c0.934204,-1.872894 0.934204,-4.683014 0.934204,-6.556824c0,-1.872589 -3.737122,-2.808899 -3.737122,0l0,0zm-4.671265,3.746429c-1.86908,1.873779 -4.672241,2.810394 -6.540039,3.746704c0.933899,0.9375 8.408081,3.746368 9.34198,3.746368c0.93512,-3.746368 -1.867798,-6.555573 -2.801941,-7.493073l0,0zm12.145447,14.985901c0,2.810394 0.933899,5.620483 3.737122,5.620483c0,0 0,-6.556793 -0.93512,-6.556793c-1.868103,0 -1.868103,0.93631 -2.802002,0.93631l0,0zm-5.606384,4.682983c-1.867798,0.9375 -0.933899,4.682709 0,5.618988c2.803223,0 4.671021,-4.681488 0,-5.618988l0,0zm16.817688,-1.872589c0,0 -6.540283,12.174591 -5.606384,11.238281c2.803223,-0.936584 3.737061,-0.936584 4.67218,-3.746704c0.934204,-1.873779 5.605225,-5.618988 8.408386,-5.618988c2.802063,-1.872589 2.802063,-1.872589 2.802063,-3.745483c-3.735901,0 -6.540344,1.872894 -10.276245,1.872894l0,0zm-13.080627,10.301697c-1.867737,0.936584 -3.737061,3.746704 -0.933899,5.619293c0,3.746399 2.803223,4.682709 2.803223,0.936279c0,-0.936279 0.933899,-2.808868 1.867798,-2.808868c0,-0.9375 0,-2.81012 0,-3.746704c-0.933899,0 -1.867798,0 -3.737122,0l0,0zm-1.867737,16.858795c0,4.682709 0,6.555298 2.801697,9.365692c2.803162,0 1.869263,-1.872894 1.869263,-4.682983c2.803223,1.872589 -4.670959,-13.112122 -4.670959,-4.682709l0,0zm-295.229126,32.780975c-5.605209,-2.810394 -3.737411,-2.810394 -7.474503,-0.9375c1.869293,2.808929 3.737091,3.745209 8.408386,3.745209c0.933914,-0.936279 0,-2.807709 -0.933884,-2.807709l0,0zm300.833984,-29.973267c-5.604858,0 -4.671021,2.810089 -2.802002,5.620178c0.934204,0 3.737122,0 5.605225,0c3.737122,-4.682678 -1.868103,-6.556488 -2.803223,-5.620178l0,0zm-48.581085,-6.554413c-1.869293,2.809204 -5.606415,1.872894 -6.540314,2.809204c0,2.808899 5.60611,9.365387 6.540314,12.175781c4.671021,0 1.867828,0.93631 9.34201,0.93631c4.67218,-1.87381 3.737122,-3.746704 8.409302,-0.93631c0.934204,7.491608 3.737366,3.745209 -0.93512,9.365417c-3.737061,-4.682709 -3.737061,-3.746399 -9.34198,-3.746399c0,0.93631 0,3.746399 0.933868,4.682678c0,3.746704 -2.803192,4.683014 -2.803192,9.365723c0.933899,0 12.146423,-5.619019 12.146423,0.936279c5.605164,0 7.474487,-2.808899 13.079407,-2.808899c-1.869019,0.93512 -6.540344,7.491913 -3.737122,10.302002c4.670959,0 1.868103,-1.873779 7.474243,0c1.868042,-0.936279 0,-6.556793 0,-7.493103c1.868042,0 4.670959,0 4.670959,2.81012c0,0 0.934204,4.682983 -1.867798,3.746704c0,1.872589 8.408081,10.302002 8.408081,10.302002c1.869324,0 9.342346,0.9375 5.605225,3.746399c-6.540344,0 -7.474182,1.873779 -7.474182,7.492798l0,0.935394c4.670959,0 1.868958,-1.872894 8.408081,-0.935394c2.803223,0 3.737122,0.935394 5.606384,0.935394c0.933899,4.683899 1.869019,-5.618103 0.933899,5.620209c3.737122,0 2.803223,0.936279 4.672241,-0.93631c2.801941,3.746399 2.801941,3.746399 2.801941,9.365692c0,0 -2.801941,0 -2.801941,0.93631c1.868042,11.23938 15.882568,4.683899 22.421326,3.746399c1.869324,-1.872589 2.803284,-6.555603 6.540344,-6.555603c0,3.746704 -1.869019,9.365753 -3.737061,13.112244c-11.211365,-0.93634 -7.474243,7.491791 -5.60614,7.491791c7.474182,0 18.687622,10.303131 26.160583,10.303131c6.540039,1.87265 14.949036,5.619141 22.421997,7.49295c0,-0.9375 0,-2.81015 0,-4.68396c2.802002,-4.682831 1.869019,-2.80899 1.869019,-8.429321c-2.802002,-3.74649 -4.670959,-11.238251 -9.34198,-14.047241c-1.869019,-1.87384 -5.606995,-0.9375 -7.476013,-0.9375c-1.869019,-2.80899 0,-6.555389 -0.932983,-9.365509c-4.671021,-1.874084 -11.210999,-7.493073 -15.88501,-10.303192c-0.933044,0 -6.538513,-3.745483 -7.472412,-3.745483c0,-2.81012 -2.803223,-9.365417 -2.803223,-12.175812l0,-0.93631c-2.802917,-0.936279 -4.670959,-3.746399 -6.539978,-5.620178c0,-2.808899 -2.802002,-3.746399 -2.802002,-5.619019c5.604858,0 3.737122,-6.555603 1.867798,-10.302002c-2.801697,-1.872894 -3.737122,0 -3.737122,2.81012c-2.801697,0 -3.737061,-5.620514 -5.604858,-6.556824c-8.408447,-0.936279 -7.474243,0.93631 -13.079407,-3.746368c-4.67218,0 -10.277405,0 -14.949646,0c-4.670959,0 -19.618164,-11.239532 -23.355286,-14.048401c-7.474487,-5.619019 -12.146667,-7.491913 -21.488678,-7.491913l0,0zm-163.497284,119.881866c-0.933014,2.810181 -0.933014,3.746521 -0.933014,5.620361c0.933014,0.93512 2.802002,1.87146 3.734985,1.87146c0,-0.93634 0,-2.8078 0,-3.7453c0.936005,1.87384 -2.801971,-5.619202 -2.801971,-3.746521l0,0zm121.454681,-177.949341c1.869293,3.746399 0.934174,3.746399 4.671295,3.746399c0,-3.746399 -0.934204,-2.81012 -4.671295,-3.746399l0,0zm32.700592,52.448181c0,0.93631 -0.933868,2.808899 2.802032,3.746399c0.935089,-2.810089 0.935089,-3.746399 -2.802032,-3.746399l0,0zm-234.502777,104.89621c0,1.872589 0,3.746368 1.868988,5.618988c0.934204,-0.93631 1.868103,0 2.802002,-0.93631c0,-3.746399 -1.867798,-4.682678 -4.67099,-4.682678l0,0zm173.774963,-295.957504c-1.867767,-0.936584 -3.737091,-0.936584 -5.605194,0.936295c-0.933899,1.873795 -1.867798,3.746399 0,5.620193c0.934204,0.936295 2.803223,0 4.671326,-1.873795c1.868988,-1.872604 1.868988,-3.746399 0.933868,-4.682693l0,0zm25.22583,185.441971c0.934204,0 1.869293,0.93634 2.803192,2.808929c0.933899,2.810394 0.933899,4.684204 -0.933899,4.684204c-0.935089,0.936279 -1.869293,-0.9375 -2.803223,-2.810425c-0.933868,-1.873779 -0.933868,-3.746368 0.933929,-4.682709l0,0zm-5.604889,5.619324c2.801697,-2.810394 9.34198,9.366608 12.145203,10.301697c2.801971,0 0,-0.935089 0.933868,0c-2.802887,2.810394 5.605225,7.493103 1.868103,10.303192c-0.933899,0.93631 -7.472992,-4.683899 -11.210083,-9.366577c-3.737091,-3.745514 -2.803192,-4.681793 -2.803192,-7.491913c-0.933899,-1.872589 -3.737122,-0.93631 -0.933899,-3.746399l0,0zm-5.606415,-29.970886c1.868073,0 2.803192,1.87381 2.803192,3.746674c0,1.87381 -0.93512,3.746429 -2.803192,3.746429c-0.933899,0 -1.868988,-1.87262 -1.868988,-3.746429c0,-1.872864 0.935089,-3.746674 1.868988,-3.746674l0,0zm1.868073,-15.922211c0.93512,0.936279 0.93512,2.81012 0,3.746399c-0.932983,1.872589 -2.801971,1.872589 -3.737061,0.9375c-0.933044,0 -0.933044,-1.873779 0,-3.74762c0.935089,-0.936279 2.804077,-1.872589 3.737061,-0.936279l0,0zm-279.347076,-102.0867c-0.933884,-0.935989 -2.803192,0.936005 -4.671005,3.746994c-1.869293,2.810104 -2.803192,5.618988 -0.935089,6.556488c1.869003,0.93541 3.737106,-0.9375 5.606094,-3.746384c1.868103,-2.810104 1.868103,-5.621094 0,-6.557098l0,0zm351.286163,334.358704c1.867859,-0.9375 4.671021,0.936279 5.604919,3.746399c1.869324,3.746704 1.869324,6.555542 0,7.493042c-1.867798,0.93634 -3.737061,-0.9375 -5.604919,-4.683838c-1.869263,-2.809204 -1.869263,-5.619324 0,-6.555603l0,0zm-177.512054,-339.977997c0.935089,0 0.935089,1.872894 0.935089,3.745514c-0.935089,2.808868 -1.869293,3.745178 -2.804413,3.745178c-0.933868,0 -0.933868,-1.871399 -0.933868,-3.745178c0.933868,-2.808929 1.868988,-4.683014 2.803192,-3.745514l0,0z" id="svg_33" stroke-miterlimit="10" stroke-linecap="square" stroke-width="4.16667" stroke="#30312d" fill="none"/>
    </g>
   </g>
  </symbol>
 </defs>
 <metadata id="metadata5108">image/svg+xmlCartoon Bell HelicopterJan HelebrantJan HelebrantJan Helebrantcartoonhelicopterchopper</metadata>
 <g>
  <title>Layer 1</title>
  <rect id="rect3321" width="162.73129" height="5.528316" x="706.734451" y="269.621525" transform="matrix(0.907492,0.420069,-0.41613,0.909305,0,0) " stroke-miterlimit="4" stroke-width="1.000005" stroke="#000000" fill="#4d4d4d"/>
  <path d="m524.821045,566.242004c15.730225,7.091675 37.534973,22.55127 49.286499,29.47113c4.797302,2.82489 94.870239,44.489746 142.032837,67.276611c3.421631,1.653198 6.347412,-1.566772 13.594116,-7.533691c1.433228,-1.179993 6.08844,-0.684937 9.415955,0.906311c3.375305,1.614197 -8.812134,12.027222 -10.538635,12.903259c-2.454346,1.245361 -12.001282,4.021851 -16.039856,2.076538c-47.847046,-23.047791 -96.786743,-44.763672 -143.979858,-69.300537c-16.513245,-8.585632 -31.311035,-21.393677 -47.13916,-30.066833c-1.756836,-0.962708 1.546814,-6.553894 3.368103,-5.732788z" id="path3315" stroke-miterlimit="4" stroke="#000000" fill="#4d4d4d"/>
  <path d="m602.952698,555.213135l-6.142517,0c0,0 8.241821,20.422424 18.982117,18.391174c6.427856,-1.215637 14.263733,0.26062 18.295105,3.75116c5.913086,5.119751 16.309692,26.353638 16.309692,26.353638c2.334106,2.020996 10.086182,17.881958 16.11499,28.883057c2.917969,5.324585 7.989258,12.855164 11.796204,15.711243c1.796997,1.348145 6.550171,0.894226 6.142517,-0.563354c-1.201294,-4.295227 -8.721436,-9.822327 -11.885925,-17.546204c-2.777771,-6.779968 -15.69696,-30.823425 -17.340576,-33.384949c-1.643555,-2.561584 -10.589478,-17.780151 -15.930054,-22.947205c-4.865662,-4.707581 -12.010437,-8.526489 -23.135925,-7.816467c-8.280457,0.528442 -13.205627,-10.832092 -13.205627,-10.832092z" id="path3319" stroke-miterlimit="4" stroke="#000000" fill="#4d4d4d"/>
  <path id="path3317" d="m466.986633,518.705933l-9.511292,0c0,0 12.761963,18.678772 29.392731,16.820923c9.953247,-1.111877 22.086639,0.238342 28.329071,3.430908c9.156006,4.682556 34.322754,20.397278 34.322754,20.397278c3.614197,1.848389 11.197571,27.282043 17.434326,35.231262c4.648743,9.465332 9.093018,2.032227 5.024414,-2.540466c-4.301208,-6.201111 -12.665344,-31.503052 -17.755249,-36.188782c0,0 -22.694214,-15.368896 -30.963806,-20.094788c-7.534241,-4.305664 -18.597473,-7.798462 -35.824799,-7.149109c-12.821747,0.483337 -20.448151,-9.907227 -20.448151,-9.907227z" stroke-miterlimit="4" stroke="#000000" fill="#4d4d4d"/>
  <path d="m427.462921,492.414307l9.511292,0c0,0 -12.761963,18.678772 -29.392731,16.820923c-9.953247,-1.111877 -22.086639,0.238342 -28.329071,3.430908c-9.156036,4.682556 -26.717346,22.932373 -26.717346,22.932373c-3.614227,1.848389 -14.155212,21.648499 -23.490479,31.710266c-4.518372,4.869995 -10.62619,8.923645 -16.521118,11.535889c-2.782562,1.233032 -10.578705,1.33313 -9.511292,0c2.952576,-3.687622 15.685455,-8.983704 20.58548,-16.048096c4.301208,-6.201111 19.143982,-27.137024 24.233948,-31.822693c0,0 15.088745,-16.777344 23.358337,-21.503235c7.534241,-4.305664 18.597504,-7.798462 35.824829,-7.149109c12.821747,0.483337 20.448151,-9.907227 20.448151,-9.907227z" id="path3301" stroke-miterlimit="4" stroke="#000000" fill="#4d4d4d"/>
  <path id="rect3298" d="m527.121704,536.919983l9.511353,0c0,0 -12.762024,18.678772 -29.392761,16.820923c-9.953247,-1.111877 -22.08667,0.238342 -28.329071,3.430908c-9.156036,4.682617 -26.717377,22.932373 -26.717377,22.932373c-3.614197,1.848389 -14.155212,21.648499 -23.490479,31.710266c-4.518341,4.869995 -10.62616,8.923645 -16.521088,11.535889c-2.782562,1.233032 -10.578735,1.33313 -9.511322,0c2.952606,-3.687622 15.685455,-8.983704 20.58551,-16.048096c4.301178,-6.201111 19.143982,-27.137024 24.233917,-31.822693c0,0 15.088776,-16.777344 23.358368,-21.503235c7.53421,-4.305664 18.597504,-7.798462 35.824799,-7.149109c12.821808,0.483337 20.448151,-9.907227 20.448151,-9.907227z" stroke-miterlimit="4" stroke="#000000" fill="#4d4d4d"/>
  <path d="m243.095154,177.738708l6.29985,0l6.523193,46.145493l-6.299881,0l-6.523163,-46.145493z" id="path3290" stroke-miterlimit="4" stroke="#000000" fill="#4d4d4d"/>
  <path d="m245.605164,215.177216l13.520721,0l14,90.701447l-13.520721,0l-14,-90.701447z" id="path3288" stroke-miterlimit="4" stroke="#000000" fill="#4d4d4d"/>
  <path d="m253.95311,202.166992a4.38194,7.86757 0 1 1-8.76387,0a4.38194,7.86757 0 1 18.76387,0z" id="path3281" stroke-miterlimit="4" stroke="#000000" fill="#4d4d4d"/>
  <rect y="200.673146" x="215.511585" height="3.186863" width="36.648922" id="rect3277" stroke-miterlimit="4" stroke="#000000" fill="#4d4d4d"/>
  <path id="rect3229" d="m423.454376,207.046875l17.926086,9.162231l3.18689,39.437439l-21.511322,-3.186859l0.398346,-45.412811z" stroke-miterlimit="4" stroke="#000000" fill="url(#linearGradient3545)"/>
  <path id="rect3202" d="m178.481003,188.699005l4.04599,-137.127403l11.425003,3.271896l1.755997,131.750496l8.26001,2.867004c9.729004,-3.412994 20.022003,-4.009003 21.863998,10.606003l158.225006,78.348007c8.121002,-16.152008 13.424988,-22.162994 24.363007,-28.175003c17.978973,0.179993 35.958984,0.358994 53.938995,0.539001c84.042969,0.449997 126.39801,30.194992 115.232971,36.841995l-10.76001,2.694l4.244019,28.243988c53.354004,6.47702 36.85199,38.305023 40.067993,54.923004c14.002991,1.119995 12.468018,0.881012 22.174011,3.399017c9.173035,2.378998 17.02301,3.786987 23.914001,10.044983c7.544983,6.850006 15.296997,22.743011 19.88501,41.751007c5.52002,22.868988 7.291992,50.449005 13.339966,70.96701c4.813049,7.725983 7.071045,16.743988 9.068054,26.160004c-5.018005,20.998962 -7.930054,43.368958 -58.52301,48.799011c-53.040039,-0.784058 -92.40802,-1.965027 -161.407013,-34.508057l-66.755005,-31.968964c-41.203003,-19.082001 -44.096008,-104.076996 -45.863007,-168.791016l-161.743988,-112.608994l-27.936996,-9.753998l1.184998,-28.272995l0,0z" stroke-miterlimit="4" stroke="#000000" fill="#ff0000"/>
  <path id="path3307" d="m569.830566,320.882721c-6.388733,8.361725 -40.029724,7.516388 -75.091492,-1.886902c-35.061829,-9.40329 -58.332733,-23.821228 -51.944031,-32.182953c3.763123,-4.925293 7.941254,-15.273834 25.108734,-16.442139c11.977905,-0.815186 34.776642,5.700714 49.186005,9.565186c21.129211,5.666656 38.773132,2.000458 47.427795,8.886475c5.70697,4.54068 7.851685,28.73761 5.312988,32.060333z" stroke-miterlimit="4" stroke-width="1.186571" stroke="#000000" fill="url(#linearGradient3529)"/>
  <path id="rect2408" d="m517.625427,385.876221c7.466797,-6.989288 44.136719,-14.524231 73.237183,-5.070251c10.905579,3.542938 17.791199,14.815002 36.618652,101.968689c0.488098,2.25946 -18.597778,0.707825 -41.117249,2.307922c-15.756348,1.119507 -33.193665,5.794922 -46.783386,5.822449c-21.545776,0.04364 -25.335327,-3.623474 -25.335327,-3.623474c0,0 -7.899872,-90.846558 3.380127,-101.405334z" stroke-miterlimit="4" stroke="#000000" fill="#000000"/>
  <path d="m618.96875,482.96875c-23.509766,-0.261353 -51.740356,4.414185 -73.75,8c-3.800476,0.619171 -9.619263,0.354767 -15.3125,-0.1875c-6.065796,-1.482635 -11.032959,-2.25177 -14.15625,-1.84375c-1.751953,-0.282562 -3.1875,-0.53125 -3.1875,-0.53125c0,0 -0.461792,1.601471 -0.999969,3.9375c-0.685181,1.795837 -1.137695,4.287964 -1.3125,7.0625c-7.495361,13.779785 -35.843079,24.866028 -42.125,35.46875c7.310669,6.732544 25.649841,12.48645 36.0625,16.0625c17.780243,6.106323 30.428558,11.737366 44.718719,14.46875c9.258179,2.028198 24.70636,4.810181 38.96875,6.15625c9.029907,0.852234 28.276245,1.327271 32.53125,1.71875c43.791687,4.028809 62.61084,-9.80481 68.984619,-17.6651c5.040405,-4.571106 13.137573,-25.710266 10.421631,-33.74115c-1.061157,-3.592285 -2.528992,-10.235962 -4.12793,-13.849396c-2.061279,-4.658691 -3.942139,-5.728668 -5.848633,-8.502258c-3.901123,-5.67511 -42.364014,-14.586151 -61.117188,-16.117096c-3.13385,-0.255829 -6.391418,-0.400146 -9.75,-0.4375z" id="path3265" stroke-miterlimit="4" stroke-width="0.765599" fill="url(#radialGradient3385)"/>
  <path id="path3205" d="m579.031982,284.189178c0,10.728699 -42.644287,8.732147 -74.363892,3.098511c-31.230835,-5.546814 -58.026398,-19.411224 -58.026398,-30.139923c0,-10.728668 21.799896,-8.732117 54.082855,-4.788574c31.485535,3.84613 78.307434,21.101318 78.307434,31.829987z" stroke-miterlimit="4" stroke="#000000" fill="url(#radialGradient3521)"/>
  <path d="m547.179016,275.414856a28.70849,6.69527 0 1 1-57.417023,-12.872955a28.70849,6.69527 0 1 157.417023,12.872955z" id="path3208" stroke-miterlimit="4" stroke-width="0.866208" stroke="#000000" fill="url(#radialGradient3513)"/>
  <path id="rect3210" d="m528.498718,181.065521l6.393982,0l-12,84.814362l-6.393982,0l12,-84.814362z" stroke-miterlimit="4" stroke="url(#linearGradient3497)" fill="url(#linearGradient3505)"/>
  <rect transform="matrix(0.986951,0.161019,-0.606986,0.794713,0,0) " y="92.168757" x="567.746615" height="4.083079" width="58.468937" id="rect3226" stroke-miterlimit="4" stroke-width="1.064747" stroke="#000000" fill="#ffffff"/>
  <path id="rect3218" d="m518.434937,163.362244l-2.3125,16.375c-0.14325,0.266678 -0.25,0.533325 -0.25,0.8125c0,0.151062 0.051086,0.289856 0.09375,0.4375l-0.1875,1.21875l1,0c2.197327,1.944183 8.173462,3.34375 15.218811,3.34375c7.038452,0 13.016174,-1.402512 15.21875,-3.34375c0.011108,-0.009796 0.020325,-0.021439 0.03125,-0.031265c0.563171,-0.506607 0.90625,-1.059677 0.90625,-1.624985c0,-0.411163 -0.195129,-0.805237 -0.5,-1.1875l2.25,-16l-31.468811,0z" stroke-miterlimit="4" stroke="#000000" fill="#4d4d4d"/>
  <path id="rect3213" d="m558.074707,167.365753l422.626709,81.479248l-19.933838,18.876404l-422.62677,-81.479218l19.933899,-18.876434z" stroke-miterlimit="4" stroke="#000000" fill="url(#linearGradient3700)"/>
  <path d="m550.132141,163.825043a16.13349,4.97947 0 1 1-32.266968,0a16.13349,4.97947 0 1 132.266968,0z" id="path3221" stroke-miterlimit="4" stroke="#000000" fill="#000000"/>
  <path d="m603.866638,382.266357c3.54126,-5.360596 39.257202,-1.579071 53.058655,5.671844c2.951538,1.550659 14.972717,17.618408 20.507324,41.994843c3.453857,15.211975 7.765381,38.983704 11.598999,67.682251c0.231445,1.73291 -10.687195,-4.95752 -27.564453,-8.800598c-15.883606,-3.908081 -19.796265,-3.995239 -29.326782,-5.338867c0,0 -2.689331,-25.943542 -10.0271,-48.397949c-3.412659,-10.443298 -5.626953,-21.36676 -9.180054,-29.949097c-5.015747,-12.115387 -10.722046,-20.356415 -9.066589,-22.862427z" id="path3236" stroke-miterlimit="4" stroke="#000000" fill="#000000"/>
  <path id="rect3242" d="m413.9021,359.018036c4.425659,-0.067505 30.825195,7.777496 32.753693,10.667297c1.62085,2.428802 -5.645416,19.319763 -8.35495,36.030975c-2.598816,16.028259 -0.930206,39.072815 -3.692444,40.840271c-2.173187,1.390564 -13.47583,-4.524048 -21.078064,-6.621704c-14.959106,-4.127441 -16.405273,-4.055237 -17.562653,-8.922546c-1.157349,-4.867249 -1.658539,-22.531067 1.022888,-38.42804c3.02713,-17.946259 12.485809,-33.498749 16.91153,-33.566254z" stroke-miterlimit="4" stroke="#000000" fill="#000000"/>
  <path d="m491.983337,382.748718c4.421112,-0.074768 11.978943,2.394379 13.905457,5.595398c1.619171,2.690338 -5.146332,20.466309 -4.666199,39.773865c0.446075,17.937622 2.16571,41.601807 1.888367,41.573669c-0.278717,-0.028259 0.878998,1.235901 -6.715363,-1.087585c-14.943634,-4.572021 -18.778473,-4.040649 -19.934631,-9.432068c-1.156158,-5.391479 0.733307,-27.592896 3.411987,-45.201843c3.023987,-19.878876 7.68927,-31.146667 12.110382,-31.221436z" id="path3245" stroke-miterlimit="4" stroke="#000000" fill="#000000"/>
  <path id="rect3268" d="m407.918427,250.866196c13.203278,-7.621262 50.591431,4.780319 50.591431,4.780319l21.849335,7.563049l-15.378937,8.612091l-12.44577,46.367035c0,0 -36.636749,-19.330109 -58.828705,-27.822571c-11.10556,-4.249908 -10.920013,-6.751007 -10.087189,-9.224701c6.62616,-19.681061 14.370148,-24.543549 24.299835,-30.275223z" stroke-miterlimit="4" stroke="#000000" fill="url(#radialGradient3563)"/>
  <path id="rect3271" d="m403.934845,263.613678l28.283417,3.18689l-3.983582,29.876831l-30.673553,-18.324463l6.373718,-14.739258z" stroke-miterlimit="4" fill="url(#linearGradient3575)" opacity="0.529126"/>
  <path id="rect3274" d="m442.177216,265.207092c4.748657,-5.892426 20.7146,-7.568787 20.7146,-7.568787l16.702087,5.600891l-8.958038,40.576111l-12.922699,17.560242l-25.096527,-11.950714c0,0 1.436035,-34.136353 9.560577,-44.217743z" stroke-miterlimit="4" stroke="#000000" fill="#000000"/>
  <path id="rect3283" d="m228.140915,100.251152l13.520706,0l14,90.701454l-13.520706,0l-14,-90.701454z" stroke-miterlimit="4" stroke="#000000" fill="#4d4d4d"/>
  <path id="path3294" d="m463.532806,371.775513c4.41748,-0.078369 11.969116,2.509644 13.894073,5.864746c1.617859,2.819855 -3.763794,21.368683 -6.634155,41.40683c-2.652802,18.519379 -2.342987,38.50589 -2.620056,40.448212c-5.312561,-0.968872 -19.465088,-4.848206 -20.431213,-9.054321c-1.155212,-5.651001 1.014404,-27.484497 3.690857,-45.941101c3.021545,-20.835815 7.682983,-32.645996 12.100494,-32.724365z" stroke-miterlimit="4" stroke="#000000" fill="#000000"/>
  <rect transform="matrix(0.907492,0.420069,-0.41613,0.909305,0,0) " y="327.196165" x="523.309711" height="5.528316" width="162.73129" id="rect3303" stroke-miterlimit="4" stroke-width="1.000005" stroke="#000000" fill="#4d4d4d"/>
  <path id="rect3310" d="m253.937729,545.527405c15.730209,7.091675 37.534958,22.55127 49.286453,29.47113c4.797302,2.82489 94.870239,44.489746 142.032837,67.27655c3.421692,1.653198 6.347382,-1.566772 13.594177,-7.53363c1.433167,-1.180054 6.08844,-0.684998 9.415924,0.906311c3.375275,1.614197 -8.812073,12.027222 -10.538574,12.903259c-2.454407,1.245361 -12.001404,4.021851 -16.039856,2.076538c-47.847076,-23.047791 -96.786804,-44.763672 -143.979919,-69.300537c-16.513245,-8.585632 -31.311005,-21.393677 -47.139191,-30.066833c-1.756805,-0.962708 1.546829,-6.553894 3.368149,-5.732788z" stroke-miterlimit="4" stroke="#000000" fill="#4d4d4d"/>
  <path d="m469.192444,637.360168a5.30474,2.16119 0 1 1-10.609497,-1.767273a5.30474,2.16119 0 1 110.609497,1.767273z" id="path3313" stroke-miterlimit="4" stroke="#000000" fill="#4d4d4d"/>
  <path id="rect3323" d="m180.057739,263.613678l103.573029,0l20.7146,16.731049l-102.776306,-3.186859l-21.511322,-13.544189z" stroke-miterlimit="4" stroke="#000000" fill="#ff0000"/>
  <path id="rect3326" d="m180.057739,189.519135l16.731033,6.373718l9.560593,83.655151l-25.494904,-15.934296l-0.796722,-74.094574z" stroke-miterlimit="4" stroke="#000000" fill="url(#linearGradient3553)"/>
  <path d="m99.497147,74.97422l422.626755,81.47924l-19.933868,18.876404l-422.62674,-81.479248l19.933853,-18.876396z" id="path3216" stroke-miterlimit="4" stroke="#000000" fill="url(#linearGradient3692)"/>
  <path id="path3805" d="m645.738037,533.960754a4.18276,2.58933 0 1 1-8.365479,0a4.18276,2.58933 0 1 18.365479,0z" filter="url(#filter4661)" stroke-miterlimit="4" stroke-width="4" fill="#ffffff" opacity="0.854369"/>
  <path d="m645.738037,533.960754a4.18276,2.58933 0 1 1-8.365479,0a4.18276,2.58933 0 1 18.365479,0z" id="path3999" filter="url(#filter4657)" stroke-miterlimit="4" stroke-width="4" fill="#ffffff" opacity="0.854369"/>
 </g>
</svg>